<svg xmlns="http://www.w3.org/2000/svg" version="1.1" xmlns:xlink="http://www.w3.org/1999/xlink" xmlns:svgjs="http://svgjs.com/svgjs" width="1440" height="560" preserveAspectRatio="none" viewBox="0 0 1440 560"><g mask="url(&quot;#SvgjsMask1000&quot;)" fill="none"><rect width="1440" height="560" x="0" y="0" fill="#0e2a47"></rect><path d="M-59.2 396.26L-59.2 396.26" stroke="#132e65" stroke-width="1.5"></path><path d="M-59.2 396.26L-59.09 533.88" stroke="#132e65" stroke-width="1.5"></path><path d="M-59.2 396.26L106.17 495.54" stroke="#132e65" stroke-width="1.5"></path><path d="M-59.2 396.26L224.06 356.73" stroke="#132e65" stroke-width="1.5"></path><path d="M-59.2 396.26L44.71 702.62" stroke="#132e65" stroke-width="1.5"></path><path d="M-59.2 396.26L232.66 540.4" stroke="#132e65" stroke-width="1.5"></path><path d="M-59.09 533.88L-59.09 533.88" stroke="#132e65" stroke-width="1.5"></path><path d="M-59.09 533.88L106.17 495.54" stroke="#132e65" stroke-width="1.5"></path><path d="M-59.09 533.88L44.71 702.62" stroke="#132e65" stroke-width="1.5"></path><path d="M-59.09 533.88L232.66 540.4" stroke="#132e65" stroke-width="1.5"></path><path d="M-59.09 533.88L216.27 660.78" stroke="#132e65" stroke-width="1.5"></path><path d="M106.17 495.54L106.17 495.54" stroke="#132e65" stroke-width="1.5"></path><path d="M106.17 495.54L232.66 540.4" stroke="#132e65" stroke-width="1.5"></path><path d="M106.17 495.54L224.06 356.73" stroke="#132e65" stroke-width="1.5"></path><path d="M44.71 702.62L44.71 702.62" stroke="#132e65" stroke-width="1.5"></path><path d="M44.71 702.62L216.27 660.78" stroke="#132e65" stroke-width="1.5"></path><path d="M44.71 702.62L106.17 495.54" stroke="#132e65" stroke-width="1.5"></path><path d="M44.71 702.62L232.66 540.4" stroke="#132e65" stroke-width="1.5"></path><path d="M44.71 702.62L374.48 695" stroke="#132e65" stroke-width="1.5"></path><path d="M224.06 356.73L224.06 356.73" stroke="#132e65" stroke-width="1.5"></path><path d="M224.06 356.73L338 374.5" stroke="#132e65" stroke-width="1.5"></path><path d="M224.06 356.73L341.22 490.4" stroke="#132e65" stroke-width="1.5"></path><path d="M224.06 356.73L232.66 540.4" stroke="#132e65" stroke-width="1.5"></path><path d="M232.66 540.4L232.66 540.4" stroke="#132e65" stroke-width="1.5"></path><path d="M232.66 540.4L341.22 490.4" stroke="#132e65" stroke-width="1.5"></path><path d="M232.66 540.4L216.27 660.78" stroke="#132e65" stroke-width="1.5"></path><path d="M216.27 660.78L216.27 660.78" stroke="#132e65" stroke-width="1.5"></path><path d="M216.27 660.78L374.48 695" stroke="#132e65" stroke-width="1.5"></path><path d="M338 374.5L338 374.5" stroke="#132e65" stroke-width="1.5"></path><path d="M338 374.5L341.22 490.4" stroke="#132e65" stroke-width="1.5"></path><path d="M338 374.5L232.66 540.4" stroke="#132e65" stroke-width="1.5"></path><path d="M341.22 490.4L341.22 490.4" stroke="#132e65" stroke-width="1.5"></path><path d="M374.48 695L374.48 695" stroke="#132e65" stroke-width="1.5"></path><path d="M374.48 695L498.93 685.24" stroke="#132e65" stroke-width="1.5"></path><path d="M374.48 695L341.22 490.4" stroke="#132e65" stroke-width="1.5"></path><path d="M556.28 372.82L556.28 372.82" stroke="#132e65" stroke-width="1.5"></path><path d="M556.28 372.82L644.31 375.81" stroke="#132e65" stroke-width="1.5"></path><path d="M493.59 514L493.59 514" stroke="#132e65" stroke-width="1.5"></path><path d="M493.59 514L341.22 490.4" stroke="#132e65" stroke-width="1.5"></path><path d="M493.59 514L556.28 372.82" stroke="#132e65" stroke-width="1.5"></path><path d="M498.93 685.24L498.93 685.24" stroke="#132e65" stroke-width="1.5"></path><path d="M498.93 685.24L664.21 674.79" stroke="#132e65" stroke-width="1.5"></path><path d="M498.93 685.24L493.59 514" stroke="#132e65" stroke-width="1.5"></path><path d="M498.93 685.24L646.95 536.43" stroke="#132e65" stroke-width="1.5"></path><path d="M498.93 685.24L341.22 490.4" stroke="#132e65" stroke-width="1.5"></path><path d="M498.93 685.24L216.27 660.78" stroke="#132e65" stroke-width="1.5"></path><path d="M644.31 375.81L644.31 375.81" stroke="#132e65" stroke-width="1.5"></path><path d="M644.31 375.81L646.95 536.43" stroke="#132e65" stroke-width="1.5"></path><path d="M644.31 375.81L812.38 349.87" stroke="#132e65" stroke-width="1.5"></path><path d="M646.95 536.43L646.95 536.43" stroke="#132e65" stroke-width="1.5"></path><path d="M646.95 536.43L664.21 674.79" stroke="#132e65" stroke-width="1.5"></path><path d="M646.95 536.43L493.59 514" stroke="#132e65" stroke-width="1.5"></path><path d="M646.95 536.43L814.63 539.18" stroke="#132e65" stroke-width="1.5"></path><path d="M646.95 536.43L556.28 372.82" stroke="#132e65" stroke-width="1.5"></path><path d="M664.21 674.79L664.21 674.79" stroke="#132e65" stroke-width="1.5"></path><path d="M664.21 674.79L821.27 684.4" stroke="#132e65" stroke-width="1.5"></path><path d="M854.22 237.57L854.22 237.57" stroke="#132e65" stroke-width="1.5"></path><path d="M854.22 237.57L948.59 232.29" stroke="#132e65" stroke-width="1.5"></path><path d="M854.22 237.57L812.38 349.87" stroke="#132e65" stroke-width="1.5"></path><path d="M854.22 237.57L940.83 69.28" stroke="#132e65" stroke-width="1.5"></path><path d="M812.38 349.87L812.38 349.87" stroke="#132e65" stroke-width="1.5"></path><path d="M812.38 349.87L966.15 394.31" stroke="#132e65" stroke-width="1.5"></path><path d="M812.38 349.87L948.59 232.29" stroke="#132e65" stroke-width="1.5"></path><path d="M812.38 349.87L814.63 539.18" stroke="#132e65" stroke-width="1.5"></path><path d="M812.38 349.87L986.02 496.49" stroke="#132e65" stroke-width="1.5"></path><path d="M814.63 539.18L814.63 539.18" stroke="#132e65" stroke-width="1.5"></path><path d="M814.63 539.18L821.27 684.4" stroke="#132e65" stroke-width="1.5"></path><path d="M814.63 539.18L986.02 496.49" stroke="#132e65" stroke-width="1.5"></path><path d="M814.63 539.18L664.21 674.79" stroke="#132e65" stroke-width="1.5"></path><path d="M814.63 539.18L966.15 394.31" stroke="#132e65" stroke-width="1.5"></path><path d="M821.27 684.4L821.27 684.4" stroke="#132e65" stroke-width="1.5"></path><path d="M1000.61 -78.23L1000.61 -78.23" stroke="#132e65" stroke-width="1.5"></path><path d="M1000.61 -78.23L1096.51 -54.73" stroke="#132e65" stroke-width="1.5"></path><path d="M1000.61 -78.23L1095.48 48.18" stroke="#132e65" stroke-width="1.5"></path><path d="M1000.61 -78.23L940.83 69.28" stroke="#132e65" stroke-width="1.5"></path><path d="M1000.61 -78.23L1240.99 -99.31" stroke="#132e65" stroke-width="1.5"></path><path d="M1000.61 -78.23L1138.26 200.7" stroke="#132e65" stroke-width="1.5"></path><path d="M940.83 69.28L940.83 69.28" stroke="#132e65" stroke-width="1.5"></path><path d="M940.83 69.28L1095.48 48.18" stroke="#132e65" stroke-width="1.5"></path><path d="M940.83 69.28L948.59 232.29" stroke="#132e65" stroke-width="1.5"></path><path d="M948.59 232.29L948.59 232.29" stroke="#132e65" stroke-width="1.5"></path><path d="M948.59 232.29L966.15 394.31" stroke="#132e65" stroke-width="1.5"></path><path d="M966.15 394.31L966.15 394.31" stroke="#132e65" stroke-width="1.5"></path><path d="M966.15 394.31L986.02 496.49" stroke="#132e65" stroke-width="1.5"></path><path d="M986.02 496.49L986.02 496.49" stroke="#132e65" stroke-width="1.5"></path><path d="M986.02 496.49L1155.93 521.63" stroke="#132e65" stroke-width="1.5"></path><path d="M986.02 496.49L1151.36 402.46" stroke="#132e65" stroke-width="1.5"></path><path d="M986.02 496.49L1161.2 650.57" stroke="#132e65" stroke-width="1.5"></path><path d="M1096.51 -54.73L1096.51 -54.73" stroke="#132e65" stroke-width="1.5"></path><path d="M1096.51 -54.73L1095.48 48.18" stroke="#132e65" stroke-width="1.5"></path><path d="M1096.51 -54.73L1240.99 -99.31" stroke="#132e65" stroke-width="1.5"></path><path d="M1095.48 48.18L1095.48 48.18" stroke="#132e65" stroke-width="1.5"></path><path d="M1138.26 200.7L1138.26 200.7" stroke="#132e65" stroke-width="1.5"></path><path d="M1138.26 200.7L1254.51 245.54" stroke="#132e65" stroke-width="1.5"></path><path d="M1138.26 200.7L1095.48 48.18" stroke="#132e65" stroke-width="1.5"></path><path d="M1138.26 200.7L1258.07 339.07" stroke="#132e65" stroke-width="1.5"></path><path d="M1151.36 402.46L1151.36 402.46" stroke="#132e65" stroke-width="1.5"></path><path d="M1151.36 402.46L1155.93 521.63" stroke="#132e65" stroke-width="1.5"></path><path d="M1151.36 402.46L1258.07 339.07" stroke="#132e65" stroke-width="1.5"></path><path d="M1151.36 402.46L1289.1 524.1" stroke="#132e65" stroke-width="1.5"></path><path d="M1151.36 402.46L966.15 394.31" stroke="#132e65" stroke-width="1.5"></path><path d="M1151.36 402.46L1254.51 245.54" stroke="#132e65" stroke-width="1.5"></path><path d="M1155.93 521.63L1155.93 521.63" stroke="#132e65" stroke-width="1.5"></path><path d="M1155.93 521.63L1161.2 650.57" stroke="#132e65" stroke-width="1.5"></path><path d="M1161.2 650.57L1161.2 650.57" stroke="#132e65" stroke-width="1.5"></path><path d="M1161.2 650.57L1306.91 640.49" stroke="#132e65" stroke-width="1.5"></path><path d="M1240.99 -99.31L1240.99 -99.31" stroke="#132e65" stroke-width="1.5"></path><path d="M1240.99 -99.31L1306.78 59.05" stroke="#132e65" stroke-width="1.5"></path><path d="M1240.99 -99.31L1414.07 -102.93" stroke="#132e65" stroke-width="1.5"></path><path d="M1240.99 -99.31L1095.48 48.18" stroke="#132e65" stroke-width="1.5"></path><path d="M1306.78 59.05L1306.78 59.05" stroke="#132e65" stroke-width="1.5"></path><path d="M1306.78 59.05L1388.63 105.1" stroke="#132e65" stroke-width="1.5"></path><path d="M1306.78 59.05L1254.51 245.54" stroke="#132e65" stroke-width="1.5"></path><path d="M1306.78 59.05L1414.07 -102.93" stroke="#132e65" stroke-width="1.5"></path><path d="M1306.78 59.05L1460.55 197.18" stroke="#132e65" stroke-width="1.5"></path><path d="M1306.78 59.05L1095.48 48.18" stroke="#132e65" stroke-width="1.5"></path><path d="M1254.51 245.54L1254.51 245.54" stroke="#132e65" stroke-width="1.5"></path><path d="M1254.51 245.54L1258.07 339.07" stroke="#132e65" stroke-width="1.5"></path><path d="M1258.07 339.07L1258.07 339.07" stroke="#132e65" stroke-width="1.5"></path><path d="M1258.07 339.07L1438.33 390.92" stroke="#132e65" stroke-width="1.5"></path><path d="M1258.07 339.07L1289.1 524.1" stroke="#132e65" stroke-width="1.5"></path><path d="M1289.1 524.1L1289.1 524.1" stroke="#132e65" stroke-width="1.5"></path><path d="M1289.1 524.1L1306.91 640.49" stroke="#132e65" stroke-width="1.5"></path><path d="M1289.1 524.1L1408.28 528.21" stroke="#132e65" stroke-width="1.5"></path><path d="M1306.91 640.49L1306.91 640.49" stroke="#132e65" stroke-width="1.5"></path><path d="M1306.91 640.49L1431.16 679.46" stroke="#132e65" stroke-width="1.5"></path><path d="M1306.91 640.49L1408.28 528.21" stroke="#132e65" stroke-width="1.5"></path><path d="M1306.91 640.49L1155.93 521.63" stroke="#132e65" stroke-width="1.5"></path><path d="M1306.91 640.49L1438.33 390.92" stroke="#132e65" stroke-width="1.5"></path><path d="M1414.07 -102.93L1414.07 -102.93" stroke="#132e65" stroke-width="1.5"></path><path d="M1414.07 -102.93L1568.86 -59.49" stroke="#132e65" stroke-width="1.5"></path><path d="M1414.07 -102.93L1388.63 105.1" stroke="#132e65" stroke-width="1.5"></path><path d="M1388.63 105.1L1388.63 105.1" stroke="#132e65" stroke-width="1.5"></path><path d="M1388.63 105.1L1460.55 197.18" stroke="#132e65" stroke-width="1.5"></path><path d="M1388.63 105.1L1254.51 245.54" stroke="#132e65" stroke-width="1.5"></path><path d="M1388.63 105.1L1576.63 44.81" stroke="#132e65" stroke-width="1.5"></path><path d="M1460.55 197.18L1460.55 197.18" stroke="#132e65" stroke-width="1.5"></path><path d="M1460.55 197.18L1584.01 203.61" stroke="#132e65" stroke-width="1.5"></path><path d="M1460.55 197.18L1561.05 356.75" stroke="#132e65" stroke-width="1.5"></path><path d="M1438.33 390.92L1438.33 390.92" stroke="#132e65" stroke-width="1.5"></path><path d="M1438.33 390.92L1561.05 356.75" stroke="#132e65" stroke-width="1.5"></path><path d="M1438.33 390.92L1408.28 528.21" stroke="#132e65" stroke-width="1.5"></path><path d="M1438.33 390.92L1588.36 499.89" stroke="#132e65" stroke-width="1.5"></path><path d="M1438.33 390.92L1460.55 197.18" stroke="#132e65" stroke-width="1.5"></path><path d="M1438.33 390.92L1289.1 524.1" stroke="#132e65" stroke-width="1.5"></path><path d="M1408.28 528.21L1408.28 528.21" stroke="#132e65" stroke-width="1.5"></path><path d="M1408.28 528.21L1431.16 679.46" stroke="#132e65" stroke-width="1.5"></path><path d="M1408.28 528.21L1588.36 499.89" stroke="#132e65" stroke-width="1.5"></path><path d="M1408.28 528.21L1561.05 356.75" stroke="#132e65" stroke-width="1.5"></path><path d="M1431.16 679.46L1431.16 679.46" stroke="#132e65" stroke-width="1.5"></path><path d="M1431.16 679.46L1593.46 686.29" stroke="#132e65" stroke-width="1.5"></path><path d="M1431.16 679.46L1289.1 524.1" stroke="#132e65" stroke-width="1.5"></path><path d="M1431.16 679.46L1588.36 499.89" stroke="#132e65" stroke-width="1.5"></path><path d="M1431.16 679.46L1161.2 650.57" stroke="#132e65" stroke-width="1.5"></path><path d="M1568.86 -59.49L1568.86 -59.49" stroke="#132e65" stroke-width="1.5"></path><path d="M1568.86 -59.49L1576.63 44.81" stroke="#132e65" stroke-width="1.5"></path><path d="M1568.86 -59.49L1388.63 105.1" stroke="#132e65" stroke-width="1.5"></path><path d="M1568.86 -59.49L1584.01 203.61" stroke="#132e65" stroke-width="1.5"></path><path d="M1568.86 -59.49L1460.55 197.18" stroke="#132e65" stroke-width="1.5"></path><path d="M1568.86 -59.49L1306.78 59.05" stroke="#132e65" stroke-width="1.5"></path><path d="M1576.63 44.81L1576.63 44.81" stroke="#132e65" stroke-width="1.5"></path><path d="M1576.63 44.81L1584.01 203.61" stroke="#132e65" stroke-width="1.5"></path><path d="M1576.63 44.81L1460.55 197.18" stroke="#132e65" stroke-width="1.5"></path><path d="M1576.63 44.81L1414.07 -102.93" stroke="#132e65" stroke-width="1.5"></path><path d="M1576.63 44.81L1306.78 59.05" stroke="#132e65" stroke-width="1.5"></path><path d="M1584.01 203.61L1584.01 203.61" stroke="#132e65" stroke-width="1.5"></path><path d="M1584.01 203.61L1561.05 356.75" stroke="#132e65" stroke-width="1.5"></path><path d="M1561.05 356.75L1561.05 356.75" stroke="#132e65" stroke-width="1.5"></path><path d="M1561.05 356.75L1588.36 499.89" stroke="#132e65" stroke-width="1.5"></path><path d="M1561.05 356.75L1258.07 339.07" stroke="#132e65" stroke-width="1.5"></path><path d="M1588.36 499.89L1588.36 499.89" stroke="#132e65" stroke-width="1.5"></path><path d="M1588.36 499.89L1593.46 686.29" stroke="#132e65" stroke-width="1.5"></path><path d="M1588.36 499.89L1584.01 203.61" stroke="#132e65" stroke-width="1.5"></path><path d="M1593.46 686.29L1593.46 686.29" stroke="#132e65" stroke-width="1.5"></path><path d="M1593.46 686.29L1408.28 528.21" stroke="#132e65" stroke-width="1.5"></path><path d="M1593.46 686.29L1306.91 640.49" stroke="#132e65" stroke-width="1.5"></path><path d="M1593.46 686.29L1561.05 356.75" stroke="#132e65" stroke-width="1.5"></path><path d="M1593.46 686.29L1438.33 390.92" stroke="#132e65" stroke-width="1.5"></path><circle r="5" cx="-59.2" cy="396.26" fill="#132e65"></circle><circle r="5" cx="-59.09" cy="533.88" fill="#132e65"></circle><circle r="5" cx="106.17" cy="495.54" fill="#132e65"></circle><circle r="5" cx="44.71" cy="702.62" fill="#132e65"></circle><circle r="5" cx="224.06" cy="356.73" fill="#132e65"></circle><circle r="5" cx="232.66" cy="540.4" fill="#132e65"></circle><circle r="5" cx="216.27" cy="660.78" fill="#132e65"></circle><circle r="5" cx="338" cy="374.5" fill="#132e65"></circle><circle r="5" cx="341.22" cy="490.4" fill="#132e65"></circle><circle r="5" cx="374.48" cy="695" fill="#132e65"></circle><circle r="5" cx="556.28" cy="372.82" fill="#132e65"></circle><circle r="5" cx="493.59" cy="514" fill="#132e65"></circle><circle r="5" cx="498.93" cy="685.24" fill="#132e65"></circle><circle r="5" cx="644.31" cy="375.81" fill="#132e65"></circle><circle r="5" cx="646.95" cy="536.43" fill="#132e65"></circle><circle r="5" cx="664.21" cy="674.79" fill="#132e65"></circle><circle r="5" cx="854.22" cy="237.57" fill="#132e65"></circle><circle r="5" cx="812.38" cy="349.87" fill="#132e65"></circle><circle r="5" cx="814.63" cy="539.18" fill="#132e65"></circle><circle r="5" cx="821.27" cy="684.4" fill="#132e65"></circle><circle r="5" cx="1000.61" cy="-78.23" fill="#132e65"></circle><circle r="5" cx="940.83" cy="69.28" fill="#132e65"></circle><circle r="5" cx="948.59" cy="232.29" fill="#132e65"></circle><circle r="5" cx="966.15" cy="394.31" fill="#132e65"></circle><circle r="5" cx="986.02" cy="496.49" fill="#132e65"></circle><circle r="5" cx="1096.51" cy="-54.73" fill="#132e65"></circle><circle r="5" cx="1095.48" cy="48.18" fill="#132e65"></circle><circle r="5" cx="1138.26" cy="200.7" fill="#132e65"></circle><circle r="5" cx="1151.36" cy="402.46" fill="#132e65"></circle><circle r="5" cx="1155.93" cy="521.63" fill="#132e65"></circle><circle r="5" cx="1161.2" cy="650.57" fill="#132e65"></circle><circle r="5" cx="1240.99" cy="-99.31" fill="#132e65"></circle><circle r="5" cx="1306.78" cy="59.05" fill="#132e65"></circle><circle r="5" cx="1254.51" cy="245.54" fill="#132e65"></circle><circle r="5" cx="1258.07" cy="339.07" fill="#132e65"></circle><circle r="5" cx="1289.1" cy="524.1" fill="#132e65"></circle><circle r="5" cx="1306.91" cy="640.49" fill="#132e65"></circle><circle r="5" cx="1414.07" cy="-102.93" fill="#132e65"></circle><circle r="5" cx="1388.63" cy="105.1" fill="#132e65"></circle><circle r="5" cx="1460.55" cy="197.18" fill="#132e65"></circle><circle r="5" cx="1438.33" cy="390.92" fill="#132e65"></circle><circle r="5" cx="1408.28" cy="528.21" fill="#132e65"></circle><circle r="5" cx="1431.16" cy="679.46" fill="#132e65"></circle><circle r="5" cx="1568.86" cy="-59.49" fill="#132e65"></circle><circle r="5" cx="1576.63" cy="44.81" fill="#132e65"></circle><circle r="5" cx="1584.01" cy="203.61" fill="#132e65"></circle><circle r="5" cx="1561.05" cy="356.75" fill="#132e65"></circle><circle r="5" cx="1588.36" cy="499.89" fill="#132e65"></circle><circle r="5" cx="1593.46" cy="686.29" fill="#132e65"></circle><path d="M-110.32 549.38L-110.32 549.38" stroke="hsl(228.5, 77.2%, 51.5%)" stroke-width="1.5"></path><path d="M-110.32 549.38L-112.25 709.3" stroke="hsl(228.5, 77.2%, 51.5%)" stroke-width="1.5"></path><path d="M-110.32 549.38L68.66 690.93" stroke="hsl(228.5, 77.2%, 51.5%)" stroke-width="1.5"></path><path d="M-110.32 549.38L255.17 679.8" stroke="hsl(228.5, 77.2%, 51.5%)" stroke-width="1.5"></path><path d="M-110.32 549.38L359.61 663.17" stroke="hsl(228.5, 77.2%, 51.5%)" stroke-width="1.5"></path><path d="M255.17 679.8L255.17 679.8" stroke="hsl(228.5, 77.2%, 51.5%)" stroke-width="1.5"></path><path d="M255.17 679.8L359.61 663.17" stroke="hsl(228.5, 77.2%, 51.5%)" stroke-width="1.5"></path><path d="M255.17 679.8L68.66 690.93" stroke="hsl(228.5, 77.2%, 51.5%)" stroke-width="1.5"></path><path d="M255.17 679.8L386.68 502.68" stroke="hsl(228.5, 77.2%, 51.5%)" stroke-width="1.5"></path><path d="M255.17 679.8L492.54 658.48" stroke="hsl(228.5, 77.2%, 51.5%)" stroke-width="1.5"></path><path d="M255.17 679.8L512.1 524.4" stroke="hsl(228.5, 77.2%, 51.5%)" stroke-width="1.5"></path><path d="M492.54 658.48L492.54 658.48" stroke="hsl(228.5, 77.2%, 51.5%)" stroke-width="1.5"></path><path d="M492.54 658.48L359.61 663.17" stroke="hsl(228.5, 77.2%, 51.5%)" stroke-width="1.5"></path><path d="M492.54 658.48L512.1 524.4" stroke="hsl(228.5, 77.2%, 51.5%)" stroke-width="1.5"></path><path d="M1564.36 95.9L1564.36 95.9" stroke="hsl(228.5, 77.2%, 51.5%)" stroke-width="1.5"></path><path d="M1564.36 95.9L1587.99 206.99" stroke="hsl(228.5, 77.2%, 51.5%)" stroke-width="1.5"></path><path d="M1564.36 95.9L1432.38 44.11" stroke="hsl(228.5, 77.2%, 51.5%)" stroke-width="1.5"></path><path d="M1564.36 95.9L1542.07 -61.8" stroke="hsl(228.5, 77.2%, 51.5%)" stroke-width="1.5"></path><path d="M1564.36 95.9L1450.69 -74.41" stroke="hsl(228.5, 77.2%, 51.5%)" stroke-width="1.5"></path><path d="M1564.36 95.9L1388.63 239.01" stroke="hsl(228.5, 77.2%, 51.5%)" stroke-width="1.5"></path><path d="M1576.9 355.72L1576.9 355.72" stroke="hsl(228.5, 77.2%, 51.5%)" stroke-width="1.5"></path><path d="M1576.9 355.72L1546.55 501.22" stroke="hsl(228.5, 77.2%, 51.5%)" stroke-width="1.5"></path><path d="M1576.9 355.72L1587.99 206.99" stroke="hsl(228.5, 77.2%, 51.5%)" stroke-width="1.5"></path><path d="M1576.9 355.72L1388.63 239.01" stroke="hsl(228.5, 77.2%, 51.5%)" stroke-width="1.5"></path><path d="M-112.25 709.3L-112.25 709.3" stroke="hsl(228.5, 77.2%, 51.5%)" stroke-width="1.5"></path><path d="M-112.25 709.3L68.66 690.93" stroke="hsl(228.5, 77.2%, 51.5%)" stroke-width="1.5"></path><path d="M-112.25 709.3L255.17 679.8" stroke="hsl(228.5, 77.2%, 51.5%)" stroke-width="1.5"></path><path d="M-112.25 709.3L359.61 663.17" stroke="hsl(228.5, 77.2%, 51.5%)" stroke-width="1.5"></path><path d="M-112.25 709.3L386.68 502.68" stroke="hsl(228.5, 77.2%, 51.5%)" stroke-width="1.5"></path><path d="M68.66 690.93L68.66 690.93" stroke="hsl(228.5, 77.2%, 51.5%)" stroke-width="1.5"></path><path d="M68.66 690.93L359.61 663.17" stroke="hsl(228.5, 77.2%, 51.5%)" stroke-width="1.5"></path><path d="M68.66 690.93L386.68 502.68" stroke="hsl(228.5, 77.2%, 51.5%)" stroke-width="1.5"></path><path d="M68.66 690.93L492.54 658.48" stroke="hsl(228.5, 77.2%, 51.5%)" stroke-width="1.5"></path><path d="M386.68 502.68L386.68 502.68" stroke="hsl(228.5, 77.2%, 51.5%)" stroke-width="1.5"></path><path d="M386.68 502.68L512.1 524.4" stroke="hsl(228.5, 77.2%, 51.5%)" stroke-width="1.5"></path><path d="M386.68 502.68L359.61 663.17" stroke="hsl(228.5, 77.2%, 51.5%)" stroke-width="1.5"></path><path d="M359.61 663.17L359.61 663.17" stroke="hsl(228.5, 77.2%, 51.5%)" stroke-width="1.5"></path><path d="M359.61 663.17L512.1 524.4" stroke="hsl(228.5, 77.2%, 51.5%)" stroke-width="1.5"></path><path d="M512.1 524.4L512.1 524.4" stroke="hsl(228.5, 77.2%, 51.5%)" stroke-width="1.5"></path><path d="M512.1 524.4L684.82 520.4" stroke="hsl(228.5, 77.2%, 51.5%)" stroke-width="1.5"></path><path d="M512.1 524.4L689.96 691.43" stroke="hsl(228.5, 77.2%, 51.5%)" stroke-width="1.5"></path><path d="M684.82 520.4L684.82 520.4" stroke="hsl(228.5, 77.2%, 51.5%)" stroke-width="1.5"></path><path d="M684.82 520.4L818.65 513.88" stroke="hsl(228.5, 77.2%, 51.5%)" stroke-width="1.5"></path><path d="M684.82 520.4L689.96 691.43" stroke="hsl(228.5, 77.2%, 51.5%)" stroke-width="1.5"></path><path d="M684.82 520.4L829.73 368.78" stroke="hsl(228.5, 77.2%, 51.5%)" stroke-width="1.5"></path><path d="M684.82 520.4L492.54 658.48" stroke="hsl(228.5, 77.2%, 51.5%)" stroke-width="1.5"></path><path d="M689.96 691.43L689.96 691.43" stroke="hsl(228.5, 77.2%, 51.5%)" stroke-width="1.5"></path><path d="M689.96 691.43L841.64 704.69" stroke="hsl(228.5, 77.2%, 51.5%)" stroke-width="1.5"></path><path d="M689.96 691.43L492.54 658.48" stroke="hsl(228.5, 77.2%, 51.5%)" stroke-width="1.5"></path><path d="M829.73 368.78L829.73 368.78" stroke="hsl(228.5, 77.2%, 51.5%)" stroke-width="1.5"></path><path d="M829.73 368.78L818.65 513.88" stroke="hsl(228.5, 77.2%, 51.5%)" stroke-width="1.5"></path><path d="M829.73 368.78L1006.52 391.98" stroke="hsl(228.5, 77.2%, 51.5%)" stroke-width="1.5"></path><path d="M818.65 513.88L818.65 513.88" stroke="hsl(228.5, 77.2%, 51.5%)" stroke-width="1.5"></path><path d="M841.64 704.69L841.64 704.69" stroke="hsl(228.5, 77.2%, 51.5%)" stroke-width="1.5"></path><path d="M841.64 704.69L1006.31 655.03" stroke="hsl(228.5, 77.2%, 51.5%)" stroke-width="1.5"></path><path d="M841.64 704.69L818.65 513.88" stroke="hsl(228.5, 77.2%, 51.5%)" stroke-width="1.5"></path><path d="M841.64 704.69L684.82 520.4" stroke="hsl(228.5, 77.2%, 51.5%)" stroke-width="1.5"></path><path d="M841.64 704.69L1004.65 510.93" stroke="hsl(228.5, 77.2%, 51.5%)" stroke-width="1.5"></path><path d="M1006.52 391.98L1006.52 391.98" stroke="hsl(228.5, 77.2%, 51.5%)" stroke-width="1.5"></path><path d="M1006.52 391.98L1099.73 366.58" stroke="hsl(228.5, 77.2%, 51.5%)" stroke-width="1.5"></path><path d="M1006.52 391.98L1004.65 510.93" stroke="hsl(228.5, 77.2%, 51.5%)" stroke-width="1.5"></path><path d="M1004.65 510.93L1004.65 510.93" stroke="hsl(228.5, 77.2%, 51.5%)" stroke-width="1.5"></path><path d="M1004.65 510.93L1129.31 491.37" stroke="hsl(228.5, 77.2%, 51.5%)" stroke-width="1.5"></path><path d="M1004.65 510.93L1006.31 655.03" stroke="hsl(228.5, 77.2%, 51.5%)" stroke-width="1.5"></path><path d="M1004.65 510.93L1099.73 366.58" stroke="hsl(228.5, 77.2%, 51.5%)" stroke-width="1.5"></path><path d="M1004.65 510.93L818.65 513.88" stroke="hsl(228.5, 77.2%, 51.5%)" stroke-width="1.5"></path><path d="M1004.65 510.93L1111.49 685.48" stroke="hsl(228.5, 77.2%, 51.5%)" stroke-width="1.5"></path><path d="M1006.31 655.03L1006.31 655.03" stroke="hsl(228.5, 77.2%, 51.5%)" stroke-width="1.5"></path><path d="M1006.31 655.03L1111.49 685.48" stroke="hsl(228.5, 77.2%, 51.5%)" stroke-width="1.5"></path><path d="M1134.73 243.91L1134.73 243.91" stroke="hsl(228.5, 77.2%, 51.5%)" stroke-width="1.5"></path><path d="M1134.73 243.91L1099.73 366.58" stroke="hsl(228.5, 77.2%, 51.5%)" stroke-width="1.5"></path><path d="M1134.73 243.91L1296.55 242.18" stroke="hsl(228.5, 77.2%, 51.5%)" stroke-width="1.5"></path><path d="M1134.73 243.91L1006.52 391.98" stroke="hsl(228.5, 77.2%, 51.5%)" stroke-width="1.5"></path><path d="M1134.73 243.91L1245.39 46.35" stroke="hsl(228.5, 77.2%, 51.5%)" stroke-width="1.5"></path><path d="M1134.73 243.91L1311.52 391.53" stroke="hsl(228.5, 77.2%, 51.5%)" stroke-width="1.5"></path><path d="M1099.73 366.58L1099.73 366.58" stroke="hsl(228.5, 77.2%, 51.5%)" stroke-width="1.5"></path><path d="M1129.31 491.37L1129.31 491.37" stroke="hsl(228.5, 77.2%, 51.5%)" stroke-width="1.5"></path><path d="M1129.31 491.37L1099.73 366.58" stroke="hsl(228.5, 77.2%, 51.5%)" stroke-width="1.5"></path><path d="M1129.31 491.37L1274.53 489.33" stroke="hsl(228.5, 77.2%, 51.5%)" stroke-width="1.5"></path><path d="M1129.31 491.37L1006.52 391.98" stroke="hsl(228.5, 77.2%, 51.5%)" stroke-width="1.5"></path><path d="M1129.31 491.37L1111.49 685.48" stroke="hsl(228.5, 77.2%, 51.5%)" stroke-width="1.5"></path><path d="M1111.49 685.48L1111.49 685.48" stroke="hsl(228.5, 77.2%, 51.5%)" stroke-width="1.5"></path><path d="M1111.49 685.48L1254.9 682.68" stroke="hsl(228.5, 77.2%, 51.5%)" stroke-width="1.5"></path><path d="M1284.79 -66.3L1284.79 -66.3" stroke="hsl(228.5, 77.2%, 51.5%)" stroke-width="1.5"></path><path d="M1284.79 -66.3L1245.39 46.35" stroke="hsl(228.5, 77.2%, 51.5%)" stroke-width="1.5"></path><path d="M1284.79 -66.3L1450.69 -74.41" stroke="hsl(228.5, 77.2%, 51.5%)" stroke-width="1.5"></path><path d="M1284.79 -66.3L1432.38 44.11" stroke="hsl(228.5, 77.2%, 51.5%)" stroke-width="1.5"></path><path d="M1284.79 -66.3L1542.07 -61.8" stroke="hsl(228.5, 77.2%, 51.5%)" stroke-width="1.5"></path><path d="M1284.79 -66.3L1296.55 242.18" stroke="hsl(228.5, 77.2%, 51.5%)" stroke-width="1.5"></path><path d="M1284.79 -66.3L1388.63 239.01" stroke="hsl(228.5, 77.2%, 51.5%)" stroke-width="1.5"></path><path d="M1245.39 46.35L1245.39 46.35" stroke="hsl(228.5, 77.2%, 51.5%)" stroke-width="1.5"></path><path d="M1245.39 46.35L1432.38 44.11" stroke="hsl(228.5, 77.2%, 51.5%)" stroke-width="1.5"></path><path d="M1245.39 46.35L1296.55 242.18" stroke="hsl(228.5, 77.2%, 51.5%)" stroke-width="1.5"></path><path d="M1245.39 46.35L1450.69 -74.41" stroke="hsl(228.5, 77.2%, 51.5%)" stroke-width="1.5"></path><path d="M1296.55 242.18L1296.55 242.18" stroke="hsl(228.5, 77.2%, 51.5%)" stroke-width="1.5"></path><path d="M1296.55 242.18L1388.63 239.01" stroke="hsl(228.5, 77.2%, 51.5%)" stroke-width="1.5"></path><path d="M1296.55 242.18L1311.52 391.53" stroke="hsl(228.5, 77.2%, 51.5%)" stroke-width="1.5"></path><path d="M1311.52 391.53L1311.52 391.53" stroke="hsl(228.5, 77.2%, 51.5%)" stroke-width="1.5"></path><path d="M1311.52 391.53L1274.53 489.33" stroke="hsl(228.5, 77.2%, 51.5%)" stroke-width="1.5"></path><path d="M1274.53 489.33L1274.53 489.33" stroke="hsl(228.5, 77.2%, 51.5%)" stroke-width="1.5"></path><path d="M1254.9 682.68L1254.9 682.68" stroke="hsl(228.5, 77.2%, 51.5%)" stroke-width="1.5"></path><path d="M1254.9 682.68L1430.96 643.79" stroke="hsl(228.5, 77.2%, 51.5%)" stroke-width="1.5"></path><path d="M1450.69 -74.41L1450.69 -74.41" stroke="hsl(228.5, 77.2%, 51.5%)" stroke-width="1.5"></path><path d="M1450.69 -74.41L1542.07 -61.8" stroke="hsl(228.5, 77.2%, 51.5%)" stroke-width="1.5"></path><path d="M1450.69 -74.41L1432.38 44.11" stroke="hsl(228.5, 77.2%, 51.5%)" stroke-width="1.5"></path><path d="M1432.38 44.11L1432.38 44.11" stroke="hsl(228.5, 77.2%, 51.5%)" stroke-width="1.5"></path><path d="M1432.38 44.11L1542.07 -61.8" stroke="hsl(228.5, 77.2%, 51.5%)" stroke-width="1.5"></path><path d="M1388.63 239.01L1388.63 239.01" stroke="hsl(228.5, 77.2%, 51.5%)" stroke-width="1.5"></path><path d="M1388.63 239.01L1311.52 391.53" stroke="hsl(228.5, 77.2%, 51.5%)" stroke-width="1.5"></path><path d="M1388.63 239.01L1432.38 44.11" stroke="hsl(228.5, 77.2%, 51.5%)" stroke-width="1.5"></path><path d="M1388.63 239.01L1587.99 206.99" stroke="hsl(228.5, 77.2%, 51.5%)" stroke-width="1.5"></path><path d="M1430.96 643.79L1430.96 643.79" stroke="hsl(228.5, 77.2%, 51.5%)" stroke-width="1.5"></path><path d="M1430.96 643.79L1588.27 657.03" stroke="hsl(228.5, 77.2%, 51.5%)" stroke-width="1.5"></path><path d="M1542.07 -61.8L1542.07 -61.8" stroke="hsl(228.5, 77.2%, 51.5%)" stroke-width="1.5"></path><path d="M1587.99 206.99L1587.99 206.99" stroke="hsl(228.5, 77.2%, 51.5%)" stroke-width="1.5"></path><path d="M1546.55 501.22L1546.55 501.22" stroke="hsl(228.5, 77.2%, 51.5%)" stroke-width="1.5"></path><path d="M1546.55 501.22L1588.27 657.03" stroke="hsl(228.5, 77.2%, 51.5%)" stroke-width="1.5"></path><path d="M1588.27 657.03L1588.27 657.03" stroke="hsl(228.5, 77.2%, 51.5%)" stroke-width="1.5"></path><path d="M1588.27 657.03L1576.9 355.72" stroke="hsl(228.5, 77.2%, 51.5%)" stroke-width="1.5"></path><path d="M1588.27 657.03L1254.9 682.68" stroke="hsl(228.5, 77.2%, 51.5%)" stroke-width="1.5"></path><path d="M1588.27 657.03L1274.53 489.33" stroke="hsl(228.5, 77.2%, 51.5%)" stroke-width="1.5"></path><path d="M1588.27 657.03L1311.52 391.53" stroke="hsl(228.5, 77.2%, 51.5%)" stroke-width="1.5"></path><circle r="25" cx="-110.32" cy="549.38" fill="url(#SvgjsRadialGradient1001)"></circle><circle r="25" cx="255.17" cy="679.8" fill="url(#SvgjsRadialGradient1001)"></circle><circle r="25" cx="492.54" cy="658.48" fill="url(#SvgjsRadialGradient1001)"></circle><circle r="25" cx="1564.36" cy="95.9" fill="url(#SvgjsRadialGradient1001)"></circle><circle r="25" cx="1576.9" cy="355.72" fill="url(#SvgjsRadialGradient1001)"></circle><circle r="5" cx="-112.25" cy="709.3" fill="#8b9ad9"></circle><circle r="5" cx="68.66" cy="690.93" fill="#8b9ad9"></circle><circle r="5" cx="386.68" cy="502.68" fill="#8b9ad9"></circle><circle r="5" cx="359.61" cy="663.17" fill="#8b9ad9"></circle><circle r="5" cx="512.1" cy="524.4" fill="#8b9ad9"></circle><circle r="5" cx="684.82" cy="520.4" fill="#8b9ad9"></circle><circle r="5" cx="689.96" cy="691.43" fill="#8b9ad9"></circle><circle r="5" cx="829.73" cy="368.78" fill="#8b9ad9"></circle><circle r="5" cx="818.65" cy="513.88" fill="#8b9ad9"></circle><circle r="5" cx="841.64" cy="704.69" fill="#8b9ad9"></circle><circle r="5" cx="1006.52" cy="391.98" fill="#8b9ad9"></circle><circle r="5" cx="1004.65" cy="510.93" fill="#8b9ad9"></circle><circle r="5" cx="1006.31" cy="655.03" fill="#8b9ad9"></circle><circle r="5" cx="1134.73" cy="243.91" fill="#8b9ad9"></circle><circle r="5" cx="1099.73" cy="366.58" fill="#8b9ad9"></circle><circle r="5" cx="1129.31" cy="491.37" fill="#8b9ad9"></circle><circle r="5" cx="1111.49" cy="685.48" fill="#8b9ad9"></circle><circle r="5" cx="1284.79" cy="-66.3" fill="#8b9ad9"></circle><circle r="5" cx="1245.39" cy="46.35" fill="#8b9ad9"></circle><circle r="5" cx="1296.55" cy="242.18" fill="#8b9ad9"></circle><circle r="5" cx="1311.52" cy="391.53" fill="#8b9ad9"></circle><circle r="5" cx="1274.53" cy="489.33" fill="#8b9ad9"></circle><circle r="5" cx="1254.9" cy="682.68" fill="#8b9ad9"></circle><circle r="5" cx="1450.69" cy="-74.41" fill="#8b9ad9"></circle><circle r="5" cx="1432.38" cy="44.11" fill="#8b9ad9"></circle><circle r="5" cx="1388.63" cy="239.01" fill="#8b9ad9"></circle><circle r="5" cx="1430.96" cy="643.79" fill="#8b9ad9"></circle><circle r="5" cx="1542.07" cy="-61.8" fill="#8b9ad9"></circle><circle r="5" cx="1587.99" cy="206.99" fill="#8b9ad9"></circle><circle r="5" cx="1546.55" cy="501.22" fill="#8b9ad9"></circle><circle r="5" cx="1588.27" cy="657.03" fill="#8b9ad9"></circle></g><defs><mask id="SvgjsMask1000"><rect width="1440" height="560" fill="#ffffff"></rect></mask><radialGradient id="SvgjsRadialGradient1001"><stop stop-color="#ffffff" offset="0.1"></stop><stop stop-color="#1735b3" offset="0.2"></stop><stop stop-color="rgba(23, 53, 179, 0)" offset="1"></stop></radialGradient></defs></svg>