<svg width="87" height="88" viewBox="0 0 87 88" fill="none" xmlns="http://www.w3.org/2000/svg">
<path d="M81.1707 54.2872C79.6691 60.0281 76.9135 65.3572 73.1059 69.8836C69.2983 74.4101 64.5351 78.0193 59.1657 80.4465C53.7962 82.8738 47.9565 84.0576 42.0748 83.9112C36.193 83.7648 30.4183 82.292 25.1739 79.6005C19.9295 76.9091 15.3484 73.0674 11.7665 68.357C8.18463 63.6467 5.69268 58.187 4.47338 52.3784C3.25407 46.5698 3.33832 40.5594 4.71996 34.7879C6.10159 29.0164 8.74557 23.6301 12.4581 19.0239L20.1161 25.3098C17.333 28.7629 15.351 32.8007 14.3152 37.1273C13.2795 41.4538 13.2164 45.9595 14.1304 50.3139C15.0444 54.6683 16.9125 58.7611 19.5977 62.2922C22.2829 65.8233 25.717 68.7033 29.6485 70.7209C33.5799 72.7385 37.9089 73.8426 42.3181 73.9524C46.7274 74.0621 51.1051 73.1746 55.1303 71.3551C59.1555 69.5355 62.7261 66.8299 65.5805 63.4366C68.4349 60.0434 70.5006 56.0485 71.6262 51.7449L81.1707 54.2872Z" fill="#FDFEFF"/>
<path d="M6.6975 29.6036C8.81086 24.0586 12.1264 19.0587 16.401 14.9704C20.6757 10.8821 25.8011 7.809 31.4015 5.97642C37.0019 4.14385 42.9353 3.59823 48.7668 4.3796C54.5982 5.16097 60.1799 7.2495 65.1026 10.4921C70.0253 13.7347 74.1642 18.0491 77.2159 23.1191C80.2676 28.1891 82.1548 33.8861 82.739 39.7925C83.3232 45.6989 82.5897 51.6649 80.5923 57.2532C78.5948 62.8415 75.384 67.9104 71.1953 72.0883L64.2617 65.0114C67.4018 61.8794 69.8087 58.0795 71.3061 53.8903C72.8035 49.701 73.3533 45.2286 72.9154 40.8009C72.4774 36.3732 71.0627 32.1025 68.775 28.3018C66.4873 24.5011 63.3846 21.2668 59.6943 18.836C56.004 16.4052 51.8198 14.8395 47.4482 14.2538C43.0767 13.668 38.6287 14.0771 34.4304 15.4508C30.2321 16.8246 26.3899 19.1284 23.1854 22.1932C19.9809 25.258 17.4954 29.0061 15.9112 33.1629L6.6975 29.6036Z" fill="#007BFF"/>
</svg>
